<svg width="14" height="14" viewBox="0 0 14 14" fill="none" xmlns="http://www.w3.org/2000/svg">
<path d="M3 10.5H8.25V9H3V10.5ZM3 7.5H10.5V6H3V7.5ZM3 4.5H10.5V3H3V4.5ZM1.5 13.5C1.0875 13.5 0.734375 13.3531 0.440625 13.0594C0.146875 12.7656 0 12.4125 0 12V1.5C0 1.0875 0.146875 0.734375 0.440625 0.440625C0.734375 0.146875 1.0875 0 1.5 0H12C12.4125 0 12.7656 0.146875 13.0594 0.440625C13.3531 0.734375 13.5 1.0875 13.5 1.5V12C13.5 12.4125 13.3531 12.7656 13.0594 13.0594C12.7656 13.3531 12.4125 13.5 12 13.5H1.5ZM1.5 12H12V1.5H1.5V12ZM1.5 1.5V12V1.5Z" fill="#E6E6E6"/>
</svg>
