<svg width="15" height="12" viewBox="0 0 15 12" fill="none" xmlns="http://www.w3.org/2000/svg">
<path d="M1.5 12C1.0875 12 0.734375 11.8531 0.440625 11.5594C0.146875 11.2656 0 10.9125 0 10.5V1.5C0 1.0875 0.146875 0.734375 0.440625 0.440625C0.734375 0.146875 1.0875 0 1.5 0H13.5C13.9125 0 14.2656 0.146875 14.5594 0.440625C14.8531 0.734375 15 1.0875 15 1.5V10.5C15 10.9125 14.8531 11.2656 14.5594 11.5594C14.2656 11.8531 13.9125 12 13.5 12H1.5ZM1.5 10.5H13.5V3H1.5V10.5ZM4.125 9.75L3.075 8.7L5.00625 6.75L3.05625 4.8L4.125 3.75L7.125 6.75L4.125 9.75ZM7.5 9.75V8.25H12V9.75H7.5Z" fill="#0D141D"/>
</svg>
